<?xml version="1.0" encoding="utf-8"?>
<svg version="1.1" xmlns:xlink="http://www.w3.org/1999/xlink" width="27px" height="27px" xmlns="http://www.w3.org/2000/svg">
  <g transform="matrix(1 0 0 1 -11 -8 )">
    <path d="M 11 8  L 38 8  L 38 35  L 11 35  L 11 8  " fill-rule="nonzero" fill="#cccccc" stroke="none" />
    <path d="M 13 10  L 36 10  L 36 33  L 13 33  L 13 10  " fill-rule="nonzero" fill="#ffffff" stroke="none" />
    <path d="M 27.065 16.1  C 25.931 16.1  25.04 15.209  25.04 14.075  C 25.04 12.941  25.931 12.05  27.065 12.05  C 28.199 12.05  29.09 12.941  29.09 14.075  C 29.09 15.209  28.199 16.1  27.065 16.1  " fill-rule="nonzero" fill="#cccccc" stroke="none" />
    <path d="M 14 33  L 14 20.9  L 19.5 15.4  L 27.2 19.8  L 31.6 18.7  L 36 19.8  L 36 33  L 14 33  " fill-rule="nonzero" fill="#169bd5" stroke="none" />
  </g>
</svg>